<mxfile host="app.diagrams.net" modified="2024-06-27T10:16:32.819Z" agent="Mozilla/5.0 (Windows NT 10.0; Win64; x64; rv:127.0) Gecko/20100101 Firefox/127.0" version="24.6.3" etag="23o6iIQAwxae0T5U6Mhy" type="github">
  <diagram name="Seite-1" id="RwtbkHIzHLmDUBqfZZSh">
    <mxGraphModel>
      <root>
        <mxCell id="0" />
        <mxCell id="1" parent="0" />
      </root>
    </mxGraphModel>
  </diagram>
</mxfile>
